<?xml version="1.0" encoding="UTF-8"?>
<svg id="Layer_2" data-name="Layer 2" xmlns="http://www.w3.org/2000/svg" viewBox="0 0 504.4 170.3">
  <defs>
    <style>
      .cls-1 {
        fill: #161616;
        stroke-width: 0px;
      }
    </style>
  </defs>
  <g id="Layer_3" data-name="Layer 3">
    <g>
      <path class="cls-1" d="M56.98,0c4.38.96,9.01,2.81,11.38,6.93,3.55,6.04,1.58,13.84-4.17,17.8-3.85,2.64-9.04,3.5-13.31,4.4-4.07.77-7.89,1.93-11.61,3.67-21.5,9.77-33.07,34.42-25.45,56.99,13.86,40.52,67.39,42.15,87.55,5.74,3.3-5.84,5.14-12.44,6.67-18.98.02-.08.1-.14.19-.12.07.02.11.07.12.14.68,7.42.17,15.13-2.35,22.2-1.5,4.39-3.62,8.58-6.28,12.38-19.68,28.07-60.98,30.32-84.25,5.15-20.77-22.22-20.82-56.87,1.17-78.24,7.29-7.11,16.55-12.09,26.5-14.2,5.57-1.3,11.61-.86,16.9-2.56,4.03-1.23,6.98-5.21,6.85-9.51-.04-4.26-2.52-7.47-6.15-9.57-1.22-.73-2.51-1.36-3.84-1.94-.08-.03-.11-.12-.08-.2.03-.07.1-.11.18-.09h0Z"/>
      <path class="cls-1" d="M199.2,65.22c-1.12-.02-2.05-.04-2.8-.04-3.96,0-7.53,1.02-10.69,3.05-3.16,2.04-5.35,4.7-6.55,7.98h-.69v-10.01h-9.83v66.21h10.18v-41.89c0-2.99.72-5.66,2.17-8,1.46-2.34,3.44-4.18,5.95-5.52,2.51-1.34,5.38-2,8.6-2,1.35,0,2.63.09,3.86.28,1.22.19,2,.32,2.35.41v-10.35c-.58-.06-1.43-.1-2.54-.13Z"/>
      <path class="cls-1" d="M249.51,76.12c-1.72-3.14-3.88-5.48-6.48-7.02-2.6-1.56-5.29-2.58-8.06-3.09s-5.23-.75-7.35-.75c-3.34,0-6.72.45-10.15,1.36-2.25.59-4.38,1.47-6.39,2.65v14.25c1.16-2.16,2.97-4.19,5.47-6.11,2.75-2.12,6.56-3.18,11.42-3.18s8.18,1.17,10.5,3.53c2.17,2.22,3.33,5.28,3.45,9.19.02.24.02.49.02.73v20.68c0,2.76-.71,5.39-2.13,7.89-1.43,2.5-3.52,4.54-6.3,6.12-2.77,1.58-6.17,2.37-10.19,2.37s-7.4-.9-10.02-2.7c-2.63-1.79-3.95-4.46-3.95-8,0-2.58.7-4.63,2.09-6.14s3.23-2.64,5.52-3.4,4.75-1.31,7.4-1.66c1.09-.15,2.52-.32,4.29-.53,1.77-.22,3.59-.48,5.48-.78.39-.06.76-.12,1.13-.19v-8.54c-.19.03-.37.05-.57.07-2.52.27-5.78.66-9.81,1.18-3.07.41-6.12.94-9.15,1.61-3.03.68-5.8,1.69-8.3,3.04-2.5,1.35-4.5,3.22-6,5.58-1.49,2.37-2.24,5.45-2.24,9.25,0,4.31,1,7.98,3.01,11.01,2.01,3.03,4.72,5.35,8.15,6.94,3.42,1.6,7.23,2.4,11.42,2.4,3.86,0,7.11-.58,9.79-1.73s4.81-2.54,6.42-4.18c1.6-1.64,2.75-3.18,3.44-4.61h.52v8.96h10.18v-43.62c0-5.26-.87-9.45-2.59-12.58Z"/>
      <path class="cls-1" d="M158.94,76.12c-1.72-3.14-3.88-5.48-6.48-7.02-2.6-1.56-5.29-2.58-8.06-3.09s-5.23-.75-7.35-.75c-3.34,0-6.72.45-10.15,1.36-2.25.59-4.38,1.47-6.39,2.65v14.25c1.16-2.16,2.97-4.19,5.47-6.11,2.75-2.12,6.56-3.18,11.42-3.18s8.18,1.17,10.5,3.53c2.17,2.22,3.33,5.28,3.45,9.19.02.24.02.49.02.73v20.68c0,2.76-.71,5.39-2.13,7.89-1.43,2.5-3.52,4.54-6.3,6.12-2.77,1.58-6.17,2.37-10.19,2.37s-7.4-.9-10.02-2.7c-2.63-1.79-3.95-4.46-3.95-8,0-2.58.7-4.63,2.09-6.14s3.23-2.64,5.52-3.4c2.28-.76,4.75-1.31,7.4-1.66,1.09-.15,2.52-.32,4.29-.53,1.77-.22,3.59-.48,5.48-.78.39-.06.76-.12,1.13-.19v-8.54c-.19.03-.37.05-.57.07-2.52.27-5.78.66-9.81,1.18-3.07.41-6.12.94-9.15,1.61-3.03.68-5.8,1.69-8.3,3.04-2.5,1.35-4.5,3.22-6,5.58-1.49,2.37-2.24,5.45-2.24,9.25,0,4.31,1,7.98,3.01,11.01,2.01,3.03,4.72,5.35,8.15,6.94,3.42,1.6,7.23,2.4,11.42,2.4,3.86,0,7.11-.58,9.79-1.73s4.81-2.54,6.42-4.18c1.6-1.64,2.75-3.18,3.44-4.61h.52v8.96h10.18v-43.62c0-5.26-.87-9.45-2.59-12.58Z"/>
      <path class="cls-1" d="M340.46,70.89c-3.77-3.69-8.6-5.54-14.53-5.54-4.74,0-8.81,1.01-12.19,3.04-3.39,2.03-5.94,4.75-7.63,8.17h-.69c-1.64-3.53-3.92-6.29-6.83-8.26-2.92-1.96-6.56-2.95-10.93-2.95s-8,.99-11.08,2.95c-3.08,1.97-5.31,4.72-6.68,8.26h-.86v-10.35h-9.83v66.21h10.17v-41.38c0-3.25.7-6.12,2.09-8.6,1.39-2.48,3.23-4.43,5.52-5.83,2.28-1.41,4.75-2.11,7.4-2.11,3.85,0,6.99,1.16,9.44,3.47,2.44,2.32,3.66,5.36,3.66,9.11v37.58h10.35v-35.34c0-4.28,1.27-7.83,3.83-10.62,2.56-2.8,6.17-4.2,10.82-4.2,3.62,0,6.77,1.05,9.45,3.14,2.67,2.1,4,5.59,4,10.48v44.31h10.18v-44.31c0-7.79-1.89-13.53-5.65-17.22Z"/>
      <path class="cls-1" d="M412.46,44.15v88.27h10.17V44.15h-10.17Z"/>
      <path class="cls-1" d="M429.8,44.15v88.27h10.17V44.15h-10.17Z"/>
      <path class="cls-1" d="M500.64,81.6c-2.52-5.14-6.02-9.14-10.52-11.98-4.5-2.84-9.74-4.27-15.72-4.27s-11.21,1.43-15.71,4.27c-4.5,2.84-8,6.84-10.52,11.98-2.51,5.14-3.77,11.16-3.77,18.06s1.26,12.82,3.77,17.93c2.52,5.11,6.02,9.09,10.52,11.94,4.5,2.84,9.74,4.26,15.71,4.26s11.21-1.42,15.72-4.26c4.5-2.85,8-6.83,10.52-11.94,2.51-5.11,3.77-11.09,3.77-17.93s-1.26-12.91-3.77-18.06ZM492.12,111.98c-1.41,3.79-3.58,6.85-6.51,9.18-2.93,2.33-6.67,3.49-11.21,3.49s-8.27-1.16-11.2-3.49c-2.93-2.33-5.1-5.39-6.51-9.18-1.41-3.79-2.11-7.9-2.11-12.32s.7-8.55,2.11-12.37c1.41-3.82,3.57-6.91,6.51-9.27,2.93-2.36,6.67-3.53,11.2-3.53s8.28,1.17,11.21,3.53c2.92,2.36,5.1,5.44,6.51,9.27,1.41,3.82,2.11,7.95,2.11,12.37s-.7,8.53-2.11,12.32Z"/>
      <path class="cls-1" d="M403.59,170.2c-.04.15-.26.12-.26-.03-.04-5.64-.58-18.71-6.3-26.5-2.29-3.12-3.4-4.29-8.65-7.44-2.64-1.58-5.69-2.42-9.1-2.64-5.65-.23-10.57-1.63-14.77-4.21-4.61-2.83-8.15-6.8-10.64-11.89-2.48-5.11-3.73-11.04-3.73-17.83s1.25-12.76,3.73-17.95c2.49-5.18,5.96-9.24,10.43-12.15,4.47-2.92,9.69-4.38,15.67-4.38,3.45,0,6.86.58,10.22,1.73,3.36,1.15,6.41,3,9.18,5.58,2.75,2.57,4.95,5.97,6.59,10.19,1.64,4.22,2.46,9.43,2.46,15.61v4.31h-40.39v-8.79h30.04c0-3.74-.74-7.08-2.22-10.01-1.48-2.92-3.57-5.24-6.29-6.93-2.72-1.7-5.91-2.55-9.59-2.55-4.05,0-7.55,1-10.5,3-2.94,1.99-5.21,4.59-6.79,7.78-1.58,3.19-2.36,6.61-2.36,10.25v5.87c0,5,.86,9.23,2.61,12.69,1.73,3.46,4.15,6.09,7.25,7.89,2.67,1.54,5.69,2.42,9.1,2.64,5.65.23,10.57,1.63,14.77,4.21,17.26,10.6,10.98,36.46,9.54,41.55Z"/>
    </g>
  </g>
</svg>